<?xml version="1.0" standalone="no"?>
<!DOCTYPE svg PUBLIC "-//W3C//DTD SVG 20010904//EN"
 "http://www.w3.org/TR/2001/REC-SVG-20010904/DTD/svg10.dtd">
<svg version="1.0" xmlns="http://www.w3.org/2000/svg"
 width="402.000000pt" height="402.000000pt" viewBox="0 0 402.000000 402.000000"
 preserveAspectRatio="xMidYMid meet">
<metadata>
Created by potrace 1.16, written by Peter Selinger 2001-2019
</metadata>
<g transform="translate(0.000000,402.000000) scale(0.100000,-0.100000)"
fill="#000000" stroke="none">
<path d="M1162 2099 c-188 -20 -354 -109 -467 -252 -320 -401 -120 -989 377
-1113 72 -17 579 -34 577 -18 0 5 -63 65 -140 134 -134 119 -142 125 -187 127
-111 6 -210 26 -269 54 -76 36 -149 114 -195 207 -31 63 -33 73 -33 172 0 99
2 110 33 172 38 79 106 157 165 191 95 56 124 59 513 66 l361 6 132 126 c72
70 131 129 131 133 0 9 -903 5 -998 -5z"/>
<path d="M2337 1967 l-138 -132 3 -559 3 -558 138 132 137 132 0 144 0 144
335 0 335 0 0 140 0 141 -302 -1 c-167 0 -318 -1 -335 0 l-33 0 -2 275 -3 274
-138 -132z"/>
<path d="M3458 1965 l-138 -133 0 -556 c0 -306 3 -556 8 -556 4 0 67 60 140
133 l132 132 -2 557 -3 556 -137 -133z"/>
<path d="M1210 1410 l0 -130 225 0 225 0 0 -147 0 -147 83 -80 c45 -43 108
-104 140 -135 l57 -55 0 412 0 412 -365 0 -365 0 0 -130z"/>
</g>
</svg>
